0
SECTION
2
HEADER
9
$INSUNITS
70
4
9
$ACADVER
1
AC1014
9
$HANDSEED
5
FFFF
0
ENDSEC
0
SECTION
2
TABLES
0
TABLE
2
VPORT
5
8
100
AcDbSymbolTable
0
ENDTAB
0
TABLE
2
LTYPE
5
5
100
AcDbSymbolTable
0
LTYPE
5
14
100
AcDbSymbolTableRecord
100
AcDbLinetypeTableRecord
2
BYBLOCK
70
0
0
LTYPE
5
15
100
AcDbSymbolTableRecord
100
AcDbLinetypeTableRecord
2
BYLAYER
70
0
0
ENDTAB
0
TABLE
2
LAYER
5
2
100
AcDbSymbolTable
70
2
0
LAYER
5
50
100
AcDbSymbolTableRecord
100
AcDbLayerTableRecord
2
0
70
0
6
CONTINUOUS
0
ENDTAB
0
TABLE
2
STYLE
5
3
100
AcDbSymbolTable
70
1
0
STYLE
5
11
100
AcDbSymbolTableRecord
100
AcDbTextStyleTableRecord
2
STANDARD
70
0
0
ENDTAB
0
TABLE
2
VIEW
5
6
100
AcDbSymbolTable
70
0
0
ENDTAB
0
TABLE
2
UCS
5
7
100
AcDbSymbolTable
70
0
0
ENDTAB
0
TABLE
2
APPID
5
9
100
AcDbSymbolTable
70
2
0
APPID
5
12
100
AcDbSymbolTableRecord
100
AcDbRegAppTableRecord
2
ACAD
70
0
0
ENDTAB
0
TABLE
2
DIMSTYLE
5
A
100
AcDbSymbolTable
70
1
0
ENDTAB
0
TABLE
2
BLOCK_RECORD
5
1
100
AcDbSymbolTable
70
1
0
BLOCK_RECORD
5
1F
100
AcDbSymbolTableRecord
100
AcDbBlockTableRecord
2
*MODEL_SPACE
0
BLOCK_RECORD
5
1B
100
AcDbSymbolTableRecord
100
AcDbBlockTableRecord
2
*PAPER_SPACE
0
ENDTAB
0
ENDSEC
0
SECTION
2
BLOCKS
0
BLOCK
5
20
100
AcDbEntity
100
AcDbBlockBegin
2
*MODEL_SPACE
0
ENDBLK
5
21
100
AcDbEntity
100
AcDbBlockEnd
0
BLOCK
5
1C
100
AcDbEntity
100
AcDbBlockBegin
2
*PAPER_SPACE
0
ENDBLK
5
1D
100
AcDbEntity
100
AcDbBlockEnd
0
ENDSEC
0
SECTION
2
ENTITIES
0
LWPOLYLINE
5
100
100
AcDbEntity
8
0
100
AcDbPolyline
90
8
70
1
43
0.0
10
31.499999911100023
20
-40.499999887200005
10
40.499999911099998
20
-40.499999887199998
42
0.41421356237309509
10
45.499999911099998
20
-35.499999887199998
10
45.499999911099991
20
35.500000112799974
42
0.41421356237309509
10
40.499999911099977
20
40.500000112799988
10
31.499999911100002
20
40.500000112800009
42
0.41421356237309509
10
26.499999911099987
20
35.500000112799988
10
26.499999911099998
20
-35.499999887199976
42
0.41421356237309509
0
CIRCLE
5
101
100
AcDbEntity
8
0
100
AcDbCircle
10
150.44597875150001
20
-17.050000000000001
30
0
40
2.2499999999999716
210
0
220
0
230
1
0
LINE
5
102
100
AcDbEntity
8
0
100
AcDbLine
10
-153.26193667156102
20
19.6860006564978
30
0
11
-133.35511030988468
21
44.723449648894011
31
0
0
LINE
5
103
100
AcDbEntity
8
0
100
AcDbLine
10
155
20
-20.933637139304857
30
0
11
155
21
21.049979464347523
31
0
0
CIRCLE
5
104
100
AcDbEntity
8
0
100
AcDbCircle
10
-118
20
-39.499999887200005
30
0
40
2.7500000000000142
210
0
220
0
230
1
0
CIRCLE
5
105
100
AcDbEntity
8
0
100
AcDbCircle
10
-78
20
27.500000112800006
30
0
40
2.7500000000000142
210
0
220
0
230
1
0
CIRCLE
5
106
100
AcDbEntity
8
0
100
AcDbCircle
10
-78
20
-39.499999887200005
30
0
40
2.7499999999999858
210
0
220
0
230
1
0
CIRCLE
5
107
100
AcDbEntity
8
0
100
AcDbCircle
10
-118
20
27.500000112800006
30
0
40
2.75
210
0
220
0
230
1
0
CIRCLE
5
108
100
AcDbEntity
8
0
100
AcDbCircle
10
-57
20
34.500000112800002
30
0
40
1.6499999999999992
210
0
220
0
230
1
0
CIRCLE
5
109
100
AcDbEntity
8
0
100
AcDbCircle
10
-32.500000088900002
20
18.500000112799999
30
0
40
1.3750000000000071
210
0
220
0
230
1
0
CIRCLE
5
110
100
AcDbEntity
8
0
100
AcDbCircle
10
-32.500000088900002
20
-39.499999887200005
30
0
40
1.3750000000000071
210
0
220
0
230
1
0
LINE
5
111
100
AcDbEntity
8
0
100
AcDbLine
10
-130.75000002869496
20
-64.499999999982435
30
0
11
-130.75000002560574
21
-53.236410085592823
31
0
0
LINE
5
112
100
AcDbEntity
8
0
100
AcDbLine
10
-154.99999409832103
20
14.707248115730305
30
0
11
-155.00000029942595
21
-14.707247957605269
31
0
0
LWPOLYLINE
5
113
100
AcDbEntity
8
0
100
AcDbPolyline
90
8
70
1
43
0.0
10
57.939007439699999
20
-48.499999887200005
10
28.000457808376822
20
-48.499999887200005
42
0.41421356237309176
10
26.000457808376822
20
-50.499999887200005
10
26.000457808376822
20
-59.499999887200012
42
0.41421356237309825
10
28.000457808376815
20
-61.499999887200012
10
57.939007439700006
20
-61.499999887199991
42
0.4142135623730937
10
59.939007439700006
20
-59.499999887200012
10
59.939007439700006
20
-50.499999887200005
42
0.41421356237309509
0
LWPOLYLINE
5
114
100
AcDbEntity
8
0
100
AcDbPolyline
90
8
70
1
43
0.0
10
59.939007439700006
20
50.499999887200005
10
59.939007439700013
20
59.499999887200012
42
0.41421356237309509
10
57.939007439699999
20
61.499999887200012
10
1.5588010166830566
20
61.499999887200012
42
0.12312920547262955
10
-0.7945500514685655
20
60.91154595972715
10
-13.475371993639111
20
54.146927530716283
42
0.78073901938857371
10
-12.06336135274813
20
48.499999887200005
10
57.939007439700006
20
48.499999887200005
42
0.4142135623730937
0
CIRCLE
5
115
100
AcDbEntity
8
0
100
AcDbCircle
10
53.499999911099998
20
18.500000112799999
30
0
40
1.3749999999999929
210
0
220
0
230
1
0
CIRCLE
5
116
100
AcDbEntity
8
0
100
AcDbCircle
10
150.44597875150001
20
17.050000000000001
30
0
40
2.2499999999999716
210
0
220
0
230
1
0
CIRCLE
5
117
100
AcDbEntity
8
0
100
AcDbCircle
10
38.365720723199999
20
-66.5
30
0
40
1.6500000000000132
210
0
220
0
230
1
0
CIRCLE
5
118
100
AcDbEntity
8
0
100
AcDbCircle
10
8.7657207232000012
20
66.5
30
0
40
1.6499999999999881
210
0
220
0
230
1
0
CIRCLE
5
119
100
AcDbEntity
8
0
100
AcDbCircle
10
-150
20
7.5
30
0
40
1.6500000000000346
210
0
220
0
230
1
0
CIRCLE
5
120
100
AcDbEntity
8
0
100
AcDbCircle
10
-85.484279276800009
20
-66.5
30
0
40
1.6499999999999913
210
0
220
0
230
1
0
CIRCLE
5
121
100
AcDbEntity
8
0
100
AcDbCircle
10
-97.640000000000015
20
34.500000112800002
30
0
40
1.6499999999999913
210
0
220
0
230
1
0
CIRCLE
5
122
100
AcDbEntity
8
0
100
AcDbCircle
10
38.365720723199999
20
66.5
30
0
40
1.6499999999999913
210
0
220
0
230
1
0
LINE
5
123
100
AcDbEntity
8
0
100
AcDbLine
10
-134.00885334775185
20
-43.901236108038646
30
0
11
-153.26194503422491
21
-19.686007530612812
31
0
0
CIRCLE
5
124
100
AcDbEntity
8
0
100
AcDbCircle
10
-57
20
-31.539999887199997
30
0
40
1.6499999999999992
210
0
220
0
230
1
0
CIRCLE
5
125
100
AcDbEntity
8
0
100
AcDbCircle
10
53.499999911099998
20
-39.499999887200005
30
0
40
1.3749999999999929
210
0
220
0
230
1
0
CIRCLE
5
126
100
AcDbEntity
8
0
100
AcDbCircle
10
-150
20
-7.5
30
0
40
1.6500000000000059
210
0
220
0
230
1
0
LWPOLYLINE
5
127
100
AcDbEntity
8
0
100
AcDbPolyline
90
8
70
1
43
0.0
10
-122.7500000883
20
-50.499999887200005
10
-122.75000008830003
20
-59.499999887200012
42
0.41421356237309509
10
-120.75000008830001
20
-61.499999887200012
10
-32.499542191623192
20
-61.499999887200012
42
0.41421356237309959
10
-30.499542191623171
20
-59.499999887200012
10
-30.499542191623178
20
-50.499999887199998
42
0.41421356237309048
10
-32.499542191623178
20
-48.499999887200005
10
-120.75000008830003
20
-48.499999887200019
42
0.41421356237309243
0
CIRCLE
5
128
100
AcDbEntity
8
0
100
AcDbCircle
10
-55.884279276800008
20
-66.5
30
0
40
1.6500000000000132
210
0
220
0
230
1
0
LINE
5
129
100
AcDbEntity
8
0
100
AcDbLine
10
-125.52767950126869
20
48.499999887200005
30
0
11
-42.394798715840587
21
48.499999887200005
31
0
0
ARC
5
130
100
AcDbEntity
8
0
100
AcDbCircle
10
-145.74999999229954
20
-53.236410154195511
30
0
40
14.999999966693789
210
0
220
-0
230
1
100
AcDbArc
50
0
51
38.487577193971553
0
LINE
5
131
100
AcDbEntity
8
0
100
AcDbLine
10
53.264397781855507
20
72.507573788533762
30
0
11
8.8560706230843511
21
72.505541979341331
31
0
0
ARC
5
132
100
AcDbEntity
8
0
100
AcDbCircle
10
52.9961902831215
20
-52.501610549156183
30
0
40
19.999999999866102
210
0
220
0
230
1
100
AcDbArc
50
270.72713079696678
51
312.31566378029441
0
ARC
5
133
100
AcDbEntity
8
0
100
AcDbCircle
10
-122.7500000138586
20
-64.499999990500314
30
0
40
8.0000000148363526
210
0
220
0
230
1
100
AcDbArc
50
180
51
270.00000009925338
0
ARC
5
134
100
AcDbEntity
8
0
100
AcDbCircle
10
52.715035401601
20
52.505222634320681
30
0
40
20.009893820839913
210
0
220
-0
230
1
100
AcDbArc
50
53.942268204931388
51
88.426773193556713
0
LINE
5
135
100
AcDbEntity
8
0
100
AcDbLine
10
-122.75000000000021
20
-72.500000005336659
30
0
11
53.250000000011013
21
-72.499999999865864
31
0
0
ARC
5
136
100
AcDbEntity
8
0
100
AcDbCircle
10
-147.00000012631324
20
-14.707247771387376
30
0
40
8.0000001731127153
210
0
220
0
230
1
100
AcDbArc
50
180.00000120741828
51
218.48757855867947
0
ARC
5
137
100
AcDbEntity
8
0
100
AcDbCircle
10
-146.99999919368688
20
14.707240017801301
30
0
40
7.9999949046382657
210
0
220
0
230
1
100
AcDbArc
50
141.51238339370244
51
179.9999420062035
0
CIRCLE
5
138
100
AcDbEntity
8
0
100
AcDbCircle
10
-14.849542191623186
20
10.11939357328532
30
0
40
1.7000000000000004
210
0
220
0
230
1
0
CIRCLE
5
139
100
AcDbEntity
8
0
100
AcDbCircle
10
10.350457808376824
20
10.11939357328532
30
0
40
1.6999999999999993
210
0
220
0
230
1
0
CIRCLE
5
140
100
AcDbEntity
8
0
100
AcDbCircle
10
-14.849542191623172
20
-62.080606426714695
30
0
40
1.7000000000000006
210
0
220
0
230
1
0
CIRCLE
5
141
100
AcDbEntity
8
0
100
AcDbCircle
10
10.350457808376824
20
-62.080606426714695
30
0
40
1.6999999999999984
210
0
220
0
230
1
0
LWPOLYLINE
5
142
100
AcDbEntity
8
0
100
AcDbPolyline
90
6
70
1
43
0.0
10
71.330201064771714
20
-23.944553805445253
10
83.902201064771717
20
-23.944553805445267
42
0.41421356237309465
10
98.902201064771717
20
-8.9445538054452545
10
98.902201064771717
20
9.0554461945547704
42
0.41421356237309515
10
83.902201064771702
20
24.055446194554754
10
71.330201064771714
20
24.055446194554754
0
CIRCLE
5
143
100
AcDbEntity
8
0
100
AcDbCircle
10
99.330201064771714
20
-39.944553805445231
30
0
40
2.6999999999999993
210
0
220
0
230
1
0
CIRCLE
5
144
100
AcDbEntity
8
0
100
AcDbCircle
10
99.330201064771714
20
39.999999999999993
30
0
40
2.7000000000000011
210
0
220
0
230
1
0
ARC
5
145
100
AcDbEntity
8
0
100
AcDbCircle
10
104.65778041122465
20
-109.24578476068493
30
0
40
56.738655197579533
210
0
220
0
230
1
100
AcDbArc
50
94.83235816436428
51
132.3156637802945
0
LINE
5
146
100
AcDbEntity
8
0
100
AcDbLine
10
99.8780817259331
20
-52.708810362441426
30
0
11
127.03266976266251
21
-50.864695484040382
31
0
0
ARC
5
147
100
AcDbEntity
8
0
100
AcDbCircle
10
119.56533724577135
20
144.3220736222566
30
0
40
93.565178188811529
210
0
220
0
230
1
100
AcDbArc
50
233.94226820493139
51
257.94731319099463
0
LINE
5
148
100
AcDbEntity
8
0
100
AcDbLine
10
100.02789259885701
20
52.819446194554757
30
0
11
127.03759801733825
21
50.98070271521032
31
0
0
ARC
5
149
100
AcDbEntity
8
0
100
AcDbCircle
10
125.00000000000006
20
21.049979464347579
30
0
40
29.999999999999947
210
-0
220
0
230
1
100
AcDbArc
50
0
51
86.105476203118897
0
ARC
5
150
100
AcDbEntity
8
0
100
AcDbCircle
10
124.99999999999987
20
-20.933637139304814
30
0
40
30.000000000000124
210
-0
220
0
230
1
100
AcDbArc
50
273.88508979123975
51
360
0
LINE
5
151
100
AcDbEntity
8
0
100
AcDbLine
10
1.7967037119398643
20
70.740180212622676
30
0
11
-37.688096579537337
21
49.676907742145737
31
0
0
ARC
5
152
100
AcDbEntity
8
0
100
AcDbCircle
10
8.8567569163948097
20
57.505541995041014
30
0
40
15.000000000000259
210
0
220
0
230
1
100
AcDbArc
50
90.002621447347408
51
118.07781034878784
0
ARC
5
153
100
AcDbEntity
8
0
100
AcDbCircle
10
-42.394798715840537
20
58.499999887199778
30
0
40
9.9999999999997691
210
0
220
0
230
1
100
AcDbArc
50
269.99999999999972
51
298.07781034878838
0
ARC
5
154
100
AcDbEntity
8
0
100
AcDbCircle
10
-125.52767950126871
20
38.499999887200069
30
0
40
9.9999999999999378
210
0
220
-0
230
1
100
AcDbArc
50
89.999999999999929
51
141.51241999687619
0
CIRCLE
5
155
100
AcDbEntity
8
0
100
AcDbCircle
10
-145.99999714448569
20
0.25798370167136286
30
0
40
4.9999999999999947
210
0
220
0
230
1
0
ENDSEC
0
SECTION
2
OBJECTS
0
DICTIONARY
5
C
100
AcDbDictionary
3
ACAD_GROUP
350
D
3
ACAD_MLINESTYLE
350
17
0
DICTIONARY
5
D
100
AcDbDictionary
0
DICTIONARY
5
1A
330
C
100
AcDbDictionary
0
DICTIONARY
5
17
100
AcDbDictionary
0
ENDSEC
0
EOF
